<svg width="9" height="14" viewBox="0 0 9 14" fill="none" xmlns="http://www.w3.org/2000/svg">
<path d="M0.133789 2.12555C0.133789 1.70369 0.289483 1.2991 0.56662 1.0008C0.843757 0.702497 1.21964 0.534912 1.61157 0.534912L7.52268 0.534912C7.91461 0.534912 8.29049 0.702497 8.56762 1.0008C8.84476 1.2991 9.00045 1.70369 9.00045 2.12555V12.8624C9.00042 12.9343 8.98226 13.0049 8.94791 13.0666C8.91356 13.1283 8.8643 13.1788 8.80539 13.2127C8.74647 13.2467 8.68011 13.2628 8.61336 13.2594C8.54661 13.2559 8.48197 13.2331 8.42634 13.1932L4.56712 10.9544L0.707906 13.1932C0.652271 13.2331 0.587637 13.2559 0.520887 13.2594C0.454136 13.2628 0.38777 13.2467 0.328855 13.2127C0.269941 13.1788 0.220685 13.1283 0.186334 13.0666C0.151983 13.0049 0.133824 12.9343 0.133789 12.8624V2.12555ZM1.61157 1.33023C1.4156 1.33023 1.22766 1.41402 1.08909 1.56318C0.950525 1.71233 0.872678 1.91462 0.872678 2.12555V12.1195L4.36245 10.1456C4.42308 10.1021 4.49429 10.079 4.56712 10.079C4.63995 10.079 4.71116 10.1021 4.77179 10.1456L8.26157 12.1195V2.12555C8.26157 1.91462 8.18372 1.71233 8.04515 1.56318C7.90658 1.41402 7.71864 1.33023 7.52268 1.33023H1.61157Z" fill="#BF6DFF"/>
</svg>
