<svg width="19" height="21" viewBox="0 0 19 21" fill="none" xmlns="http://www.w3.org/2000/svg">
<mask id="path-1-inside-1_524_816" fill="white">
<path d="M16.1911 1.35935C16.4978 1.35935 16.792 1.50257 17.0089 1.7575C17.2258 2.01243 17.3476 2.35819 17.3476 2.71871V13.5935C17.3476 13.9541 17.2258 14.2998 17.0089 14.5548C16.792 14.8097 16.4978 14.9529 16.1911 14.9529H13.2997C12.9407 14.9529 12.5865 15.0512 12.2653 15.2399C11.9441 15.4287 11.6647 15.7027 11.4493 16.0404L9.25185 19.4836L7.05442 16.0404C6.83896 15.7027 6.55958 15.4287 6.23839 15.2399C5.91721 15.0512 5.56305 14.9529 5.20395 14.9529H2.3126C2.00586 14.9529 1.71169 14.8097 1.4948 14.5548C1.2779 14.2998 1.15605 13.9541 1.15605 13.5935V2.71871C1.15605 2.35819 1.2779 2.01243 1.4948 1.7575C1.71169 1.50257 2.00586 1.35935 2.3126 1.35935H16.1911ZM2.3126 0C1.69913 0 1.11079 0.286435 0.676998 0.796292C0.243211 1.30615 -0.000488281 1.99766 -0.000488281 2.71871L-0.000488281 13.5935C-0.000488281 14.3146 0.243211 15.0061 0.676998 15.516C1.11079 16.0258 1.69913 16.3123 2.3126 16.3123H5.20395C5.3835 16.3123 5.56058 16.3614 5.72117 16.4558C5.88176 16.5501 6.02146 16.6872 6.12918 16.856L8.32661 20.2992C8.43434 20.4681 8.57403 20.6051 8.73463 20.6995C8.89522 20.7939 9.0723 20.843 9.25185 20.843C9.4314 20.843 9.60848 20.7939 9.76907 20.6995C9.92966 20.6051 10.0694 20.4681 10.1771 20.2992L12.3745 16.856C12.4822 16.6872 12.6219 16.5501 12.7825 16.4558C12.9431 16.3614 13.1202 16.3123 13.2997 16.3123H16.1911C16.8046 16.3123 17.3929 16.0258 17.8267 15.516C18.2605 15.0061 18.5042 14.3146 18.5042 13.5935V2.71871C18.5042 1.99766 18.2605 1.30615 17.8267 0.796292C17.3929 0.286435 16.8046 0 16.1911 0L2.3126 0Z"/>
</mask>
<path d="M16.1911 1.35935C16.4978 1.35935 16.792 1.50257 17.0089 1.7575C17.2258 2.01243 17.3476 2.35819 17.3476 2.71871V13.5935C17.3476 13.9541 17.2258 14.2998 17.0089 14.5548C16.792 14.8097 16.4978 14.9529 16.1911 14.9529H13.2997C12.9407 14.9529 12.5865 15.0512 12.2653 15.2399C11.9441 15.4287 11.6647 15.7027 11.4493 16.0404L9.25185 19.4836L7.05442 16.0404C6.83896 15.7027 6.55958 15.4287 6.23839 15.2399C5.91721 15.0512 5.56305 14.9529 5.20395 14.9529H2.3126C2.00586 14.9529 1.71169 14.8097 1.4948 14.5548C1.2779 14.2998 1.15605 13.9541 1.15605 13.5935V2.71871C1.15605 2.35819 1.2779 2.01243 1.4948 1.7575C1.71169 1.50257 2.00586 1.35935 2.3126 1.35935H16.1911ZM2.3126 0C1.69913 0 1.11079 0.286435 0.676998 0.796292C0.243211 1.30615 -0.000488281 1.99766 -0.000488281 2.71871L-0.000488281 13.5935C-0.000488281 14.3146 0.243211 15.0061 0.676998 15.516C1.11079 16.0258 1.69913 16.3123 2.3126 16.3123H5.20395C5.3835 16.3123 5.56058 16.3614 5.72117 16.4558C5.88176 16.5501 6.02146 16.6872 6.12918 16.856L8.32661 20.2992C8.43434 20.4681 8.57403 20.6051 8.73463 20.6995C8.89522 20.7939 9.0723 20.843 9.25185 20.843C9.4314 20.843 9.60848 20.7939 9.76907 20.6995C9.92966 20.6051 10.0694 20.4681 10.1771 20.2992L12.3745 16.856C12.4822 16.6872 12.6219 16.5501 12.7825 16.4558C12.9431 16.3614 13.1202 16.3123 13.2997 16.3123H16.1911C16.8046 16.3123 17.3929 16.0258 17.8267 15.516C18.2605 15.0061 18.5042 14.3146 18.5042 13.5935V2.71871C18.5042 1.99766 18.2605 1.30615 17.8267 0.796292C17.3929 0.286435 16.8046 0 16.1911 0L2.3126 0Z" fill="black"/>
<path d="M11.4493 16.0404L19.8789 21.4201L19.8793 21.4196L11.4493 16.0404ZM9.25185 19.4836L0.822197 24.8633L9.25185 38.0721L17.6815 24.8633L9.25185 19.4836ZM7.05442 16.0404L-1.37555 21.4196L-1.37523 21.4201L7.05442 16.0404ZM5.20395 14.9529V4.9529V14.9529ZM1.15605 13.5935L-8.84395 13.5935L1.15605 13.5935ZM2.3126 1.35935L2.3126 -8.64065L2.3126 1.35935ZM2.3126 0L2.3126 -10L2.3126 0ZM-0.000488281 2.71871L-10.0005 2.71871L-0.000488281 2.71871ZM-0.000488281 13.5935L-10.0005 13.5935L-0.000488281 13.5935ZM6.12918 16.856L-2.30079 22.2352L-2.30047 22.2357L6.12918 16.856ZM8.32661 20.2992L16.7566 14.9201L16.7563 14.9196L8.32661 20.2992ZM10.1771 20.2992L1.74743 14.9196L1.74711 14.9201L10.1771 20.2992ZM12.3745 16.856L20.8042 22.2357L20.8045 22.2352L12.3745 16.856ZM16.1911 11.3594C13.2762 11.3594 10.8796 9.98539 9.39252 8.23753L24.6253 -4.72253C22.7044 -6.98025 19.7195 -8.64065 16.1911 -8.64065L16.1911 11.3594ZM9.39252 8.23753C7.94735 6.53893 7.34764 4.53509 7.34764 2.71871H27.3476C27.3476 0.181288 26.5042 -2.51408 24.6253 -4.72253L9.39252 8.23753ZM7.34764 2.71871V13.5935H27.3476V2.71871H7.34764ZM7.34764 13.5935C7.34764 11.7772 7.94735 9.77332 9.39252 8.07473L24.6253 21.0348C26.5042 18.8263 27.3476 16.131 27.3476 13.5935H7.34764ZM9.39252 8.07473C10.8796 6.32687 13.2762 4.9529 16.1911 4.9529V24.9529C19.7195 24.9529 22.7044 23.2925 24.6253 21.0348L9.39252 8.07473ZM16.1911 4.9529H13.2997V24.9529H16.1911V4.9529ZM13.2997 4.9529C11.0907 4.9529 8.99566 5.56243 7.19865 6.61849L17.332 23.8614C16.1773 24.5399 14.7906 24.9529 13.2997 24.9529V4.9529ZM7.19865 6.61849C5.41511 7.66665 4.01883 9.09481 3.01931 10.6612L19.8793 21.4196C19.3106 22.3107 18.4731 23.1907 17.332 23.8614L7.19865 6.61849ZM3.01963 10.6607L0.822196 14.104L17.6815 24.8633L19.8789 21.4201L3.01963 10.6607ZM17.6815 14.104L15.4841 10.6607L-1.37523 21.4201L0.822197 24.8633L17.6815 14.104ZM15.4844 10.6612C14.4849 9.09481 13.0886 7.66665 11.305 6.61849L1.17175 23.8614C0.0305681 23.1907 -0.806948 22.3107 -1.37555 21.4196L15.4844 10.6612ZM11.305 6.61849C9.50804 5.56243 7.41303 4.9529 5.20395 4.9529L5.20395 24.9529C3.71306 24.9529 2.32638 24.5399 1.17175 23.8614L11.305 6.61849ZM5.20395 4.9529H2.3126V24.9529H5.20395V4.9529ZM2.3126 4.9529C5.22749 4.9529 7.62409 6.32687 9.11117 8.07473L-6.12158 21.0348C-4.20071 23.2925 -1.21577 24.9529 2.3126 24.9529V4.9529ZM9.11117 8.07473C10.5563 9.77333 11.1561 11.7772 11.1561 13.5935L-8.84395 13.5935C-8.84395 16.131 -8.00054 18.8263 -6.12158 21.0348L9.11117 8.07473ZM11.1561 13.5935V2.71871H-8.84395V13.5935H11.1561ZM11.1561 2.71871C11.1561 4.53508 10.5563 6.53893 9.11117 8.23753L-6.12158 -4.72253C-8.00054 -2.51407 -8.84395 0.181293 -8.84395 2.71871L11.1561 2.71871ZM9.11117 8.23753C7.62409 9.9854 5.22748 11.3594 2.3126 11.3594L2.3126 -8.64065C-1.21576 -8.64065 -4.2007 -6.98025 -6.12158 -4.72253L9.11117 8.23753ZM2.3126 11.3594H16.1911V-8.64065H2.3126V11.3594ZM2.3126 -10C-1.5225 -10 -4.80161 -8.19639 -6.93938 -5.68374L8.29338 7.27632C7.02318 8.76926 4.92075 10 2.3126 10L2.3126 -10ZM-6.93938 -5.68374C-9.03523 -3.22035 -10.0005 -0.179232 -10.0005 2.71871L9.99951 2.71871C9.99951 4.17456 9.52165 5.83265 8.29338 7.27632L-6.93938 -5.68374ZM-10.0005 2.71871V13.5935H9.99951V2.71871L-10.0005 2.71871ZM-10.0005 13.5935C-10.0005 16.4915 -9.03523 19.5326 -6.93938 21.996L8.29338 9.03594C9.52165 10.4796 9.99951 12.1377 9.99951 13.5935L-10.0005 13.5935ZM-6.93938 21.996C-4.80161 24.5086 -1.5225 26.3123 2.3126 26.3123V6.31226C4.92076 6.31226 7.02319 7.543 8.29338 9.03594L-6.93938 21.996ZM2.3126 26.3123H5.20395V6.31226H2.3126V26.3123ZM5.20395 26.3123C3.53351 26.3123 1.96975 25.8501 0.654524 25.0772L10.7878 7.83434C9.15141 6.87265 7.23349 6.31226 5.20395 6.31226V26.3123ZM0.654524 25.0772C-0.647226 24.3122 -1.62444 23.2951 -2.30079 22.2352L14.5592 11.4768C13.6674 10.0792 12.4108 8.78811 10.7878 7.83434L0.654524 25.0772ZM-2.30047 22.2357L-0.103037 25.6789L16.7563 14.9196L14.5588 11.4763L-2.30047 22.2357ZM-0.103358 25.6784C0.788428 27.076 2.04502 28.3671 3.66798 29.3209L13.8013 12.078C15.1031 12.8431 16.0803 13.8602 16.7566 14.9201L-0.103358 25.6784ZM3.66798 29.3209C5.30439 30.2826 7.22231 30.843 9.25185 30.843V10.843C10.9223 10.843 12.486 11.3051 13.8013 12.078L3.66798 29.3209ZM9.25185 30.843C11.2814 30.843 13.1993 30.2826 14.8357 29.3209L4.70242 12.078C6.01764 11.3051 7.5814 10.843 9.25185 10.843V30.843ZM14.8357 29.3209C16.4587 28.3671 17.7153 27.076 18.6071 25.6784L1.74711 14.9201C2.42345 13.8601 3.40065 12.8431 4.70242 12.078L14.8357 29.3209ZM18.6067 25.6789L20.8042 22.2357L3.94486 11.4763L1.74743 14.9196L18.6067 25.6789ZM20.8045 22.2352C20.1281 23.2951 19.1509 24.3122 17.8492 25.0772L7.71588 7.83434C6.09295 8.7881 4.83635 10.0792 3.94454 11.4768L20.8045 22.2352ZM17.8492 25.0772C16.534 25.8501 14.9702 26.3123 13.2997 26.3123V6.31226C11.2702 6.31226 9.35228 6.87265 7.71588 7.83434L17.8492 25.0772ZM13.2997 26.3123H16.1911V6.31226H13.2997V26.3123ZM16.1911 26.3123C20.0262 26.3123 23.3053 24.5086 25.4431 21.996L10.2103 9.03594C11.4805 7.54301 13.5829 6.31226 16.1911 6.31226V26.3123ZM25.4431 21.996C27.5389 19.5326 28.5042 16.4915 28.5042 13.5935H8.50418C8.50418 12.1377 8.98205 10.4796 10.2103 9.03594L25.4431 21.996ZM28.5042 13.5935V2.71871H8.50418V13.5935H28.5042ZM28.5042 2.71871C28.5042 -0.179236 27.5389 -3.22036 25.4431 -5.68374L10.2103 7.27632C8.98204 5.83265 8.50418 4.17456 8.50418 2.71871H28.5042ZM25.4431 -5.68374C23.3053 -8.19639 20.0262 -10 16.1911 -10L16.1911 10C13.5829 10 11.4805 8.76926 10.2103 7.27632L25.4431 -5.68374ZM16.1911 -10H2.3126V10H16.1911V-10Z" fill="black" mask="url(#path-1-inside-1_524_816)"/>
<path d="M3.46924 4.75805C3.46924 4.57778 3.53016 4.40491 3.63861 4.27744C3.74706 4.14998 3.89414 4.07837 4.04751 4.07837H14.4564C14.6098 4.07837 14.7568 4.14998 14.8653 4.27744C14.9737 4.40491 15.0347 4.57778 15.0347 4.75805C15.0347 4.93831 14.9737 5.11119 14.8653 5.23865C14.7568 5.36612 14.6098 5.43772 14.4564 5.43772H4.04751C3.89414 5.43772 3.74706 5.36612 3.63861 5.23865C3.53016 5.11119 3.46924 4.93831 3.46924 4.75805ZM3.46924 8.15643C3.46924 7.97617 3.53016 7.80329 3.63861 7.67583C3.74706 7.54837 3.89414 7.47676 4.04751 7.47676H14.4564C14.6098 7.47676 14.7568 7.54837 14.8653 7.67583C14.9737 7.80329 15.0347 7.97617 15.0347 8.15643C15.0347 8.3367 14.9737 8.50957 14.8653 8.63704C14.7568 8.7645 14.6098 8.83611 14.4564 8.83611H4.04751C3.89414 8.83611 3.74706 8.7645 3.63861 8.63704C3.53016 8.50957 3.46924 8.3367 3.46924 8.15643ZM3.46924 11.5548C3.46924 11.3746 3.53016 11.2017 3.63861 11.0742C3.74706 10.9468 3.89414 10.8751 4.04751 10.8751H9.83022C9.98359 10.8751 10.1307 10.9468 10.2391 11.0742C10.3476 11.2017 10.4085 11.3746 10.4085 11.5548C10.4085 11.7351 10.3476 11.908 10.2391 12.0354C10.1307 12.1629 9.98359 12.2345 9.83022 12.2345H4.04751C3.89414 12.2345 3.74706 12.1629 3.63861 12.0354C3.53016 11.908 3.46924 11.7351 3.46924 11.5548Z" fill="#333333"/>
</svg>
