<svg width="21" height="20" viewBox="0 0 21 20" fill="none" xmlns="http://www.w3.org/2000/svg">
<path d="M17.704 1.88552C18.0363 1.88552 18.355 2.01357 18.5899 2.24149C18.8249 2.46941 18.9569 2.77854 18.9569 3.10088V12.8237C18.9569 13.1461 18.8249 13.4552 18.5899 13.6831C18.355 13.911 18.0363 14.0391 17.704 14.0391H14.5717C14.1827 14.0391 13.799 14.1269 13.451 14.2957C13.1031 14.4645 12.8004 14.7095 12.567 15.0114L10.1865 18.0899L7.8059 15.0114C7.57249 14.7095 7.26982 14.4645 6.92188 14.2957C6.57393 14.1269 6.19025 14.0391 5.80123 14.0391H2.66893C2.33663 14.0391 2.01795 13.911 1.78298 13.6831C1.54801 13.4552 1.41601 13.1461 1.41601 12.8237V3.10088C1.41601 2.77854 1.54801 2.46941 1.78298 2.24149C2.01795 2.01357 2.33663 1.88552 2.66893 1.88552H17.704ZM2.66893 0.670166C2.00434 0.670166 1.36697 0.926258 0.89703 1.3821C0.427094 1.83795 0.163086 2.45621 0.163086 3.10088L0.163086 12.8237C0.163086 13.4684 0.427094 14.0866 0.89703 14.5425C1.36697 14.9983 2.00434 15.2544 2.66893 15.2544H5.80123C5.99574 15.2544 6.18758 15.2984 6.36155 15.3827C6.53553 15.4671 6.68686 15.5896 6.80357 15.7406L9.18411 18.8191C9.30082 18.97 9.45215 19.0925 9.62613 19.1769C9.8001 19.2613 9.99194 19.3052 10.1865 19.3052C10.381 19.3052 10.5728 19.2613 10.7468 19.1769C10.9207 19.0925 11.0721 18.97 11.1888 18.8191L13.5693 15.7406C13.686 15.5896 13.8374 15.4671 14.0114 15.3827C14.1853 15.2984 14.3772 15.2544 14.5717 15.2544H17.704C18.3686 15.2544 19.0059 14.9983 19.4759 14.5425C19.9458 14.0866 20.2098 13.4684 20.2098 12.8237V3.10088C20.2098 2.45621 19.9458 1.83795 19.4759 1.3821C19.0059 0.926258 18.3686 0.670166 17.704 0.670166L2.66893 0.670166Z" fill="#BF6DFF"/>
<path d="M3.92188 4.92408C3.92188 4.76292 3.98788 4.60835 4.10536 4.49439C4.22285 4.38043 4.38219 4.31641 4.54834 4.31641H15.8246C15.9908 4.31641 16.1501 4.38043 16.2676 4.49439C16.3851 4.60835 16.4511 4.76292 16.4511 4.92408C16.4511 5.08525 16.3851 5.23982 16.2676 5.35378C16.1501 5.46774 15.9908 5.53176 15.8246 5.53176H4.54834C4.38219 5.53176 4.22285 5.46774 4.10536 5.35378C3.98788 5.23982 3.92188 5.08525 3.92188 4.92408ZM3.92188 7.96247C3.92188 7.80131 3.98788 7.64674 4.10536 7.53278C4.22285 7.41882 4.38219 7.3548 4.54834 7.3548H15.8246C15.9908 7.3548 16.1501 7.41882 16.2676 7.53278C16.3851 7.64674 16.4511 7.80131 16.4511 7.96247C16.4511 8.12364 16.3851 8.2782 16.2676 8.39217C16.1501 8.50613 15.9908 8.57015 15.8246 8.57015H4.54834C4.38219 8.57015 4.22285 8.50613 4.10536 8.39217C3.98788 8.2782 3.92188 8.12364 3.92188 7.96247ZM3.92188 11.0009C3.92188 10.8397 3.98788 10.6851 4.10536 10.5712C4.22285 10.4572 4.38219 10.3932 4.54834 10.3932H10.8129C10.9791 10.3932 11.1384 10.4572 11.2559 10.5712C11.3734 10.6851 11.4394 10.8397 11.4394 11.0009C11.4394 11.162 11.3734 11.3166 11.2559 11.4306C11.1384 11.5445 10.9791 11.6085 10.8129 11.6085H4.54834C4.38219 11.6085 4.22285 11.5445 4.10536 11.4306C3.98788 11.3166 3.92188 11.162 3.92188 11.0009Z" fill="#BF6DFF"/>
</svg>
