<svg width="18" height="26" viewBox="0 0 18 26" fill="none" xmlns="http://www.w3.org/2000/svg">
<path d="M0.42334 3.91026C0.42334 3.07657 0.731021 2.27703 1.2787 1.68753C1.82637 1.09803 2.56918 0.766846 3.34371 0.766846L15.0252 0.766846C15.7997 0.766846 16.5425 1.09803 17.0902 1.68753C17.6379 2.27703 17.9456 3.07657 17.9456 3.91026V25.1283C17.9455 25.2704 17.9096 25.4099 17.8417 25.5318C17.7738 25.6537 17.6765 25.7536 17.5601 25.8207C17.4436 25.8878 17.3125 25.9196 17.1806 25.9128C17.0487 25.906 16.9209 25.8609 16.811 25.7821L9.18445 21.3578L1.5579 25.7821C1.44796 25.8609 1.32023 25.906 1.18832 25.9128C1.05641 25.9196 0.925254 25.8878 0.808828 25.8207C0.692402 25.7536 0.595064 25.6537 0.52718 25.5318C0.459295 25.4099 0.423408 25.2704 0.42334 25.1283V3.91026ZM3.34371 2.33855C2.95644 2.33855 2.58504 2.50414 2.3112 2.79889C2.03737 3.09364 1.88353 3.49341 1.88353 3.91026V23.6603L8.77998 19.7593C8.8998 19.6735 9.04052 19.6277 9.18445 19.6277C9.32838 19.6277 9.4691 19.6735 9.58892 19.7593L16.4854 23.6603V3.91026C16.4854 3.49341 16.3315 3.09364 16.0577 2.79889C15.7839 2.50414 15.4125 2.33855 15.0252 2.33855H3.34371Z" fill="#91FD8E"/>
<path d="M2.71429 2L1 3.09524V25L9.57143 20.619L17 25V3.09524V2H2.71429Z" fill="#91FD8E"/>
</svg>
