<svg width="19" height="28" viewBox="0 0 19 28" fill="none" xmlns="http://www.w3.org/2000/svg">
<path d="M0 3.50006C0 2.57178 0.33363 1.68153 0.927495 1.02514C1.52136 0.368755 2.32681 0 3.16667 0L15.8333 0C16.6732 0 17.4786 0.368755 18.0725 1.02514C18.6664 1.68153 19 2.57178 19 3.50006V27.1254C18.9999 27.2837 18.961 27.439 18.8874 27.5748C18.8138 27.7105 18.7082 27.8217 18.582 27.8964C18.4558 27.9711 18.3135 28.0066 18.1705 27.999C18.0275 27.9914 17.889 27.9411 17.7698 27.8535L9.5 22.9271L1.23025 27.8535C1.11103 27.9411 0.972531 27.9914 0.829495 27.999C0.686458 28.0066 0.544244 27.9711 0.417999 27.8964C0.291754 27.8217 0.186206 27.7105 0.112597 27.5748C0.0389881 27.439 7.3974e-05 27.2837 0 27.1254V3.50006ZM3.16667 1.75003C2.74674 1.75003 2.34401 1.93441 2.04708 2.2626C1.75015 2.59079 1.58333 3.03592 1.58333 3.50006V25.4909L9.06142 21.1473C9.19135 21.0518 9.34393 21.0008 9.5 21.0008C9.65607 21.0008 9.80865 21.0518 9.93858 21.1473L17.4167 25.4909V3.50006C17.4167 3.03592 17.2499 2.59079 16.9529 2.2626C16.656 1.93441 16.2533 1.75003 15.8333 1.75003H3.16667Z" fill="#91FD8E"/>
</svg>
