<svg width="21" height="21" viewBox="0 0 21 21" fill="none" xmlns="http://www.w3.org/2000/svg">
<path d="M11.6669 2.83806L11.6672 2.83829L16.512 6.22793C16.8777 6.48391 17.2341 6.91221 17.4997 7.42084C17.7652 7.92945 17.9131 8.46719 17.9131 8.91583V14.6186C17.9131 16.4321 16.4406 17.9046 14.6271 17.9046H5.55981C3.74801 17.9046 2.27383 16.4254 2.27383 14.6102V8.80648C2.27383 8.39125 2.40741 7.88095 2.6495 7.38927C2.89143 6.89792 3.21616 6.47709 3.54845 6.2179L3.54858 6.2178L7.76095 2.9303C7.76121 2.9301 7.76147 2.9299 7.76172 2.9297C8.82403 2.10722 10.562 2.06392 11.6669 2.83806ZM10.0935 16.371C10.7697 16.371 11.3243 15.8164 11.3243 15.1401V12.6168C11.3243 11.9405 10.7697 11.3859 10.0935 11.3859C9.41722 11.3859 8.86261 11.9405 8.86261 12.6168V15.1401C8.86261 15.8164 9.41722 16.371 10.0935 16.371Z" stroke="#BF6DFF" stroke-width="1.2"/>
</svg>
