<svg width="26" height="28" viewBox="0 0 26 28" fill="none" xmlns="http://www.w3.org/2000/svg">
<path d="M14.287 23.8665C14.5994 23.8665 14.899 23.9957 15.1199 24.2257C15.3408 24.4556 15.4649 24.7675 15.4649 25.0928C15.4649 25.418 15.3408 25.7299 15.1199 25.9599C14.899 26.1898 14.5994 26.319 14.287 26.319C13.9746 26.319 13.6749 26.1898 13.454 25.9599C13.2331 25.7299 13.109 25.418 13.109 25.0928C13.109 24.7675 13.2331 24.4556 13.454 24.2257C13.6749 23.9957 13.9746 23.8665 14.287 23.8665ZM10.1641 22.6402C10.4765 22.6402 10.7761 22.7694 10.997 22.9994C11.2179 23.2294 11.342 23.5413 11.342 23.8665C11.342 24.1917 11.2179 24.5036 10.997 24.7336C10.7761 24.9636 10.4765 25.0928 10.1641 25.0928C9.85166 25.0928 9.55204 24.9636 9.33113 24.7336C9.11021 24.5036 8.98611 24.1917 8.98611 23.8665C8.98611 23.5413 9.11021 23.2294 9.33113 22.9994C9.55204 22.7694 9.85166 22.6402 10.1641 22.6402ZM18.4099 22.6402C18.7223 22.6402 19.0219 22.7694 19.2428 22.9994C19.4637 23.2294 19.5878 23.5413 19.5878 23.8665C19.5878 24.1917 19.4637 24.5036 19.2428 24.7336C19.0219 24.9636 18.7223 25.0928 18.4099 25.0928C18.0974 25.0928 17.7978 24.9636 17.5769 24.7336C17.356 24.5036 17.2319 24.1917 17.2319 23.8665C17.2319 23.5413 17.356 23.2294 17.5769 22.9994C17.7978 22.7694 18.0974 22.6402 18.4099 22.6402ZM14.2864 6.68602C18.0188 6.68602 20.1362 9.25748 20.4442 12.3636H20.5385C22.9403 12.3636 24.8875 14.3851 24.8875 16.8793C24.8875 19.3735 22.9403 21.395 20.5385 21.395H8.03431C5.63243 21.395 3.68524 19.3735 3.68524 16.8793C3.68524 14.3851 5.63243 12.3636 8.03431 12.3636H8.12854C8.43835 9.23725 10.554 6.68602 14.2864 6.68602ZM14.2864 8.21578C11.7767 8.21578 9.58923 10.3298 9.58923 13.2496C9.58923 13.7125 9.20285 14.0754 8.75994 14.0754H7.92358C6.39575 14.0754 5.15712 15.3716 5.15712 16.97C5.15712 18.5691 6.39575 19.8652 7.92358 19.8652H20.6492C22.177 19.8652 23.4156 18.5691 23.4156 16.97C23.4156 15.3716 22.177 14.0761 20.6492 14.0761H19.8128C19.3699 14.0761 18.9835 13.7125 18.9835 13.2496C18.9835 10.2924 16.796 8.21578 14.2864 8.21578ZM4.10283 11.7707C4.17213 11.945 4.17689 12.14 4.11619 12.3177C4.05549 12.4955 3.93364 12.6436 3.77418 12.7333L3.70645 12.767L2.34471 13.3569C2.17149 13.4302 1.97788 13.4318 1.80354 13.3614C1.62921 13.2909 1.48735 13.1538 1.40702 12.978C1.32668 12.8022 1.31396 12.6011 1.37146 12.4158C1.42895 12.2306 1.55231 12.0752 1.71627 11.9816L1.784 11.9479L3.14573 11.3581C3.32522 11.2807 3.52687 11.2807 3.70635 11.3581C3.88583 11.4355 4.02844 11.5839 4.10283 11.7707ZM11.7596 5.86013L11.7231 5.87178C11.1789 6.05695 10.6724 6.3022 10.2094 6.60141C9.57688 6.32278 8.87562 6.26066 8.20694 6.42403C7.53825 6.58739 6.93676 6.96778 6.48932 7.51026C6.04188 8.05274 5.77166 8.72923 5.71768 9.44202C5.6637 10.1548 5.82876 10.867 6.18902 11.4758C5.74581 11.6407 5.32493 11.8645 4.93684 12.1416C4.39493 11.1755 4.19176 10.0436 4.36198 8.93897C4.5322 7.83434 5.06526 6.82538 5.87026 6.08417C6.67526 5.34296 7.70234 4.91542 8.77632 4.87445C9.85031 4.83349 10.9047 5.18225 11.7596 5.86013ZM2.2599 5.96988L2.3347 5.99809L3.70115 6.60447C4.07162 6.76757 4.24949 7.21454 4.09812 7.60265C3.95676 7.96562 3.57805 8.14833 3.22642 8.03858L3.15221 8.01099L1.78636 7.40399C1.6079 7.32474 1.46635 7.17588 1.39204 6.9893C1.31773 6.80273 1.31656 6.59328 1.38879 6.40582C1.53015 6.04346 1.90828 5.86013 2.2599 5.96988ZM6.60013 2.18443L6.63252 2.25555L7.19795 3.66943C7.27036 3.851 7.27297 4.05459 7.20524 4.23811C7.13752 4.42163 7.00464 4.57104 6.83408 4.65545C6.66351 4.73986 6.46831 4.7528 6.28884 4.69162C6.10937 4.63043 5.95934 4.49979 5.86979 4.3267L5.83739 4.25619L5.27197 2.84231C5.19871 2.66061 5.1955 2.4565 5.26301 2.27239C5.33051 2.08829 5.46355 1.93832 5.63449 1.85365C5.80543 1.76898 6.00114 1.7561 6.18096 1.8177C6.36077 1.8793 6.51089 2.01063 6.60013 2.18443ZM11.9293 1.84108C12.2838 1.99436 12.4647 2.39902 12.3592 2.77364L12.3321 2.85335L11.7479 4.24883C11.6738 4.43016 11.5363 4.57534 11.3631 4.65485C11.19 4.73436 10.9942 4.74224 10.8157 4.67687C10.6371 4.61151 10.4892 4.47782 10.402 4.30298C10.3148 4.12814 10.2948 3.92528 10.3461 3.73564L10.3732 3.65594L10.9569 2.26046C11.0324 2.07064 11.1773 1.91984 11.3597 1.8412C11.542 1.76255 11.7469 1.76251 11.9293 1.84108Z" fill="#BF6DFF"/>
</svg>
