<svg width="139" height="20" viewBox="0 0 139 20" fill="none" xmlns="http://www.w3.org/2000/svg">
<path d="M15.3001 9.14414L18.5871 16.4487L22.8856 5.46377C23.2976 4.45237 23.4943 3.73128 23.4756 3.3005C23.4756 2.85099 23.2414 2.57941 22.7732 2.48576L21.6213 2.261V1.67102C21.8086 1.72721 22.5203 1.7553 23.7565 1.7553C24.3933 1.7553 24.9365 1.7553 25.386 1.7553C25.8355 1.73657 26.1352 1.70848 26.285 1.67102V2.261L25.4422 2.51385C25.1612 2.6075 24.9458 2.74797 24.796 2.93527C24.6462 3.10384 24.4963 3.38478 24.3465 3.7781L18.25 19.9324H17.3229L13.8673 12.1783L10.0745 19.9324H9.31596L3.0228 4.36809C2.85423 3.97477 2.7044 3.66573 2.57329 3.44097C2.46091 3.19749 2.34853 3.01955 2.23616 2.90718C2.14251 2.77607 2.03949 2.68242 1.92712 2.62623C1.83347 2.57004 1.72109 2.51386 1.58998 2.45767L0.971906 2.261V1.67102C1.44015 1.72721 2.31107 1.7553 3.58469 1.7553C4.87703 1.7553 5.86034 1.72721 6.53461 1.67102V2.261L5.69177 2.45767C5.54194 2.49512 5.46702 2.57941 5.46702 2.71052C5.46702 2.84162 5.51384 3.03828 5.60749 3.3005C5.71987 3.56271 5.87907 3.95604 6.08509 4.48047L10.9173 16.6454L13.4177 11.3917L10.4959 4.76141C10.1213 3.91858 9.82166 3.34732 9.5969 3.04765C9.37214 2.72925 9.13802 2.54195 8.89454 2.48576L7.88314 2.261V1.67102C8.40757 1.72721 9.50325 1.7553 11.1702 1.7553C12.8184 1.7553 13.8579 1.72721 14.2887 1.67102V2.261L13.1649 2.48576C12.9027 2.54195 12.7528 2.67306 12.7154 2.87908C12.7154 2.97273 12.7528 3.15066 12.8278 3.41288C12.9027 3.65636 13.0432 4.02159 13.2492 4.50856L14.8787 8.3575L16.9576 3.7781C17.1075 3.47843 17.1262 3.18812 17.0138 2.90718C16.9202 2.62623 16.7329 2.46703 16.4519 2.42957L15.4967 2.261V1.67102C15.965 1.72721 16.8453 1.7553 18.1376 1.7553C19.4112 1.7553 20.2353 1.72721 20.6099 1.67102V2.261L19.2895 2.51385C18.6527 2.64496 18.1657 3.07574 17.8286 3.8062L15.3001 9.14414ZM28.7395 3.94667C28.7395 3.42224 28.5897 3.05701 28.29 2.85099C27.9903 2.62623 27.5127 2.43894 26.8572 2.2891V1.7834C27.0445 1.7834 27.288 1.75531 27.5877 1.69912C27.9061 1.64293 28.2432 1.57737 28.5991 1.50246C28.9549 1.40881 29.3108 1.30579 29.6666 1.19342C30.0412 1.06231 30.3784 0.921837 30.678 0.771999H31.3523V10.577C31.9329 9.80905 32.5229 9.22843 33.1223 8.8351C33.7403 8.42305 34.4333 8.18893 35.2013 8.13274C35.3511 8.13274 35.5009 8.13274 35.6508 8.13274C35.8006 8.13274 35.9504 8.14211 36.1003 8.16084C37.018 8.23576 37.7391 8.59162 38.2635 9.22843C38.788 9.86523 39.0502 10.7643 39.0502 11.9255V17.6568C39.0502 17.8441 39.0877 18.0126 39.1626 18.1625C39.2375 18.3123 39.4342 18.434 39.7526 18.5277L40.7078 18.8086V19.4267C40.1271 19.3893 39.5746 19.3612 39.0502 19.3424C38.5445 19.3237 38.1231 19.3143 37.7859 19.3143C37.4675 19.3143 37.0274 19.3237 36.4655 19.3424C35.9223 19.3612 35.3605 19.3893 34.7798 19.4267V18.8086L35.7631 18.4996C36.0254 18.4059 36.2033 18.2936 36.2969 18.1625C36.3906 18.0126 36.4374 17.7785 36.4374 17.4601V12.1502C36.4374 11.4573 36.2782 10.9141 35.9598 10.5208C35.6414 10.1274 35.1263 9.93079 34.4146 9.93079C33.7029 9.93079 33.0942 10.1462 32.5885 10.577C32.1015 11.0077 31.6894 11.4853 31.3523 12.0098V17.4601C31.3523 17.6661 31.3898 17.8441 31.4647 17.9939C31.5396 18.1437 31.6801 18.2561 31.8861 18.331L33.3751 18.8086V19.4267C33.0754 19.3893 32.6353 19.3612 32.0547 19.3424C31.4741 19.3237 30.8279 19.3143 30.1162 19.3143C29.4232 19.3143 28.8051 19.3237 28.2619 19.3424C27.7375 19.3612 27.3254 19.3893 27.0258 19.4267V18.8086L28.1495 18.4996C28.393 18.4247 28.5522 18.3123 28.6272 18.1625C28.7021 18.0126 28.7395 17.8253 28.7395 17.6006V3.94667ZM46.5865 19.6796C45.8186 19.6796 45.1537 19.5485 44.5918 19.2862C44.0299 19.0053 43.5617 18.6307 43.1871 18.1625C42.8312 17.6942 42.5597 17.1417 42.3724 16.5049C42.2038 15.8681 42.1195 15.1844 42.1195 14.454C42.1195 13.4613 42.2787 12.5904 42.5971 11.8412C42.9155 11.0733 43.3276 10.4271 43.8333 9.90269C44.3577 9.37826 44.9571 8.98494 45.6313 8.72273C46.3243 8.46051 47.036 8.3294 47.7665 8.3294C48.216 8.3294 48.6187 8.36686 48.9746 8.44178C49.3304 8.5167 49.6395 8.60098 49.9017 8.69463C50.2013 8.78828 50.4729 8.90066 50.7164 9.03177L52.4302 8.10465L52.683 8.18893C52.683 9.64984 52.683 11.1014 52.683 12.5436C52.7018 13.967 52.7111 15.4092 52.7111 16.8701C52.7111 17.6193 53.0295 17.9752 53.6663 17.9377C53.8162 17.9377 53.9379 17.919 54.0316 17.8815C54.1252 17.8253 54.2095 17.7785 54.2844 17.741C54.3593 17.6849 54.4342 17.6193 54.5092 17.5444L54.7058 17.8253C54.556 18.1812 54.3687 18.4902 54.1439 18.7524C53.9379 18.9959 53.6851 19.2113 53.3854 19.3986C53.0857 19.5859 52.7111 19.6796 52.2616 19.6796C51.5312 19.6796 51.0067 19.4548 50.6883 19.0053C50.3699 18.5558 50.2107 17.9752 50.2107 17.2634V16.533C50.0983 16.9263 49.9485 17.3196 49.7612 17.7129C49.5739 18.0875 49.3304 18.4247 49.0307 18.7244C48.7498 19.0053 48.4033 19.2394 47.9913 19.4267C47.5979 19.5953 47.1297 19.6796 46.5865 19.6796ZM50.2107 13.3302C50.2107 12.8245 50.1733 12.3375 50.0983 11.8693C50.0421 11.4011 49.9204 10.989 49.7331 10.6331C49.5458 10.2586 49.293 9.95888 48.9746 9.73413C48.6562 9.50937 48.2347 9.39699 47.7103 9.39699C47.3919 9.39699 47.0548 9.47191 46.6989 9.62175C46.343 9.77159 46.0153 10.0151 45.7156 10.3522C45.4159 10.6893 45.1724 11.1388 44.9851 11.7007C44.7978 12.2626 44.7042 12.9463 44.7042 13.7516C44.7042 14.351 44.7604 14.9222 44.8728 15.4654C45.0039 15.9898 45.1818 16.4487 45.4066 16.842C45.65 17.2353 45.9404 17.5537 46.2775 17.7972C46.6334 18.022 47.036 18.1344 47.4856 18.1344C47.8976 18.1344 48.2722 18.0126 48.6093 17.7691C48.9465 17.5257 49.2274 17.2072 49.4522 16.8139C49.6956 16.4019 49.8829 15.9243 50.0141 15.3811C50.1452 14.838 50.2107 14.2573 50.2107 13.6393V13.3302ZM59.9046 5.77281H60.4103C60.4103 6.27851 60.4103 6.78421 60.4103 7.28991C60.429 7.77688 60.4384 8.27322 60.4384 8.77892L64.0626 8.69463V9.90269L60.4384 10.0151V15.3249C60.4384 16.2614 60.5227 16.9731 60.6913 17.4601C60.8786 17.9283 61.3187 18.1437 62.0117 18.1063C62.2926 18.1063 62.6017 18.0688 62.9388 17.9939C63.2947 17.9002 63.688 17.6942 64.1188 17.3758L64.3716 17.7691C64.0532 18.2561 63.5944 18.715 62.995 19.1458C62.4144 19.5578 61.6277 19.7638 60.6351 19.7638C59.6424 19.7638 58.9213 19.511 58.4718 19.0053C58.041 18.4809 57.8256 17.5537 57.8256 16.2239V10.0713C57.5634 10.0713 57.3106 10.0806 57.0671 10.0994C56.8236 10.0994 56.5707 10.0994 56.3085 10.0994C56.0463 10.0994 55.9058 9.99634 55.8871 9.79032C55.8871 9.58429 56.0182 9.42509 56.2804 9.31271C56.6738 9.14414 57.0296 8.96621 57.348 8.77892C57.6852 8.59162 57.9567 8.39496 58.1628 8.18893C58.3688 7.98291 58.6591 7.67387 59.0337 7.26182C59.4083 6.84976 59.6986 6.35343 59.9046 5.77281ZM76.5648 19.3986C75.8906 19.3612 75.132 19.3424 74.2892 19.3424C73.4464 19.3237 72.4069 19.3143 71.1707 19.3143C69.9345 19.3143 68.8295 19.3237 67.8556 19.3424C66.8816 19.3424 66.0669 19.3612 65.4113 19.3986C65.5237 18.9678 65.6455 18.5651 65.7766 18.1906C65.9264 17.7972 66.1324 17.3945 66.3946 16.9825C66.6756 16.5517 67.0315 16.0835 67.4622 15.5778C67.9117 15.0533 68.4924 14.4259 69.2041 13.6954L70.0469 12.7964C70.7399 12.1034 71.3205 11.476 71.7888 10.9141C72.257 10.3335 72.6223 9.79968 72.8845 9.31271C73.1467 8.80701 73.334 8.32941 73.4464 7.87989C73.5587 7.43038 73.6149 6.96214 73.6149 6.47517C73.6149 5.4825 73.3246 4.70522 72.744 4.14333C72.1634 3.56271 71.4048 3.2724 70.4683 3.2724C69.5131 3.2724 68.6984 3.59081 68.0241 4.22762C67.3686 4.84569 66.9097 5.74472 66.6475 6.92468L65.8609 6.67183C66.1418 5.0049 66.7692 3.72192 67.7432 2.82289C68.7171 1.92387 69.9345 1.47436 71.3955 1.47436C72.0697 1.47436 72.7065 1.57737 73.3059 1.7834C73.9052 1.98943 74.4297 2.2891 74.8792 2.68242C75.3287 3.07574 75.6845 3.54398 75.9468 4.08714C76.209 4.6303 76.3401 5.23902 76.3401 5.91328C76.3401 6.58755 76.2277 7.21499 76.0029 7.79561C75.7782 8.3575 75.4598 8.91002 75.0477 9.45318C74.6544 9.97761 74.1768 10.502 73.6149 11.0265C73.053 11.5322 72.4443 12.066 71.7888 12.6279L70.7774 13.5269C70.2904 13.9389 69.766 14.4446 69.2041 15.044C68.6422 15.6433 68.0803 16.3457 67.5184 17.1511H73.8116C74.2424 17.1511 74.5795 17.1136 74.823 17.0387C75.0665 16.945 75.2631 16.8139 75.413 16.6454C75.5628 16.4581 75.6939 16.2146 75.8063 15.9149C75.9187 15.6152 76.0591 15.2406 76.2277 14.7911H76.9863L76.5648 19.3986ZM92.0659 9.14414L95.353 16.4487L99.6515 5.46377C100.064 4.45237 100.26 3.73128 100.241 3.3005C100.241 2.85099 100.007 2.57941 99.5391 2.48576L98.3872 2.261V1.67102C98.5745 1.72721 99.2862 1.7553 100.522 1.7553C101.159 1.7553 101.702 1.7553 102.152 1.7553C102.601 1.73657 102.901 1.70848 103.051 1.67102V2.261L102.208 2.51385C101.927 2.6075 101.712 2.74797 101.562 2.93527C101.412 3.10384 101.262 3.38478 101.112 3.7781L95.0159 19.9324H94.0887L90.6331 12.1783L86.8404 19.9324H86.0818L79.7887 4.36809C79.6201 3.97477 79.4703 3.66573 79.3392 3.44097C79.2268 3.19749 79.1144 3.01955 79.002 2.90718C78.9084 2.77607 78.8054 2.68242 78.693 2.62623C78.5993 2.57004 78.487 2.51386 78.3559 2.45767L77.7378 2.261V1.67102C78.206 1.72721 79.077 1.7553 80.3506 1.7553C81.6429 1.7553 82.6262 1.72721 83.3005 1.67102V2.261L82.4576 2.45767C82.3078 2.49512 82.2329 2.57941 82.2329 2.71052C82.2329 2.84162 82.2797 3.03828 82.3734 3.3005C82.4857 3.56271 82.6449 3.95604 82.851 4.48047L87.6832 16.6454L90.1836 11.3917L87.2618 4.76141C86.8872 3.91858 86.5875 3.34732 86.3628 3.04765C86.138 2.72925 85.9039 2.54195 85.6604 2.48576L84.649 2.261V1.67102C85.1734 1.72721 86.2691 1.7553 87.9361 1.7553C89.5843 1.7553 90.6238 1.72721 91.0545 1.67102V2.261L89.9308 2.48576C89.6686 2.54195 89.5187 2.67306 89.4813 2.87908C89.4813 2.97273 89.5187 3.15066 89.5936 3.41288C89.6686 3.65636 89.809 4.02159 90.0151 4.50856L91.6445 8.3575L93.7235 3.7781C93.8734 3.47843 93.8921 3.18812 93.7797 2.90718C93.6861 2.62623 93.4988 2.46703 93.2178 2.42957L92.2626 2.261V1.67102C92.7309 1.72721 93.6111 1.7553 94.9035 1.7553C96.1771 1.7553 97.0012 1.72721 97.3758 1.67102V2.261L96.0554 2.51385C95.4186 2.64496 94.9316 3.07574 94.5944 3.8062L92.0659 9.14414ZM114.046 12.5436H106.713C106.676 12.7309 106.648 12.8713 106.629 12.965C106.629 13.0586 106.629 13.1991 106.629 13.3864C106.629 14.0419 106.723 14.6413 106.91 15.1844C107.097 15.7276 107.36 16.1958 107.697 16.5892C108.034 16.9825 108.437 17.2915 108.905 17.5163C109.392 17.7223 109.935 17.8253 110.534 17.8253C111.19 17.8253 111.789 17.7223 112.332 17.5163C112.894 17.2915 113.484 16.8795 114.102 16.2801L114.215 16.8139C113.952 17.226 113.653 17.6099 113.316 17.9658C112.997 18.3217 112.632 18.6401 112.22 18.921C111.808 19.1832 111.34 19.3893 110.815 19.5391C110.291 19.6889 109.701 19.7638 109.045 19.7638C108.296 19.7638 107.612 19.6234 106.994 19.3424C106.376 19.0615 105.843 18.6682 105.393 18.1625C104.944 17.638 104.588 17.02 104.325 16.3082C104.082 15.5965 103.96 14.8192 103.96 13.9764C103.96 13.1148 104.091 12.3282 104.354 11.6165C104.634 10.9047 105.018 10.2867 105.505 9.76222C105.992 9.23779 106.582 8.8351 107.275 8.55416C107.968 8.25449 108.736 8.10465 109.579 8.10465C110.31 8.10465 110.946 8.21703 111.49 8.44178C112.033 8.66654 112.482 8.98494 112.838 9.39699C113.213 9.79032 113.494 10.2586 113.681 10.8017C113.887 11.3449 114.009 11.9255 114.046 12.5436ZM106.854 11.6726H110.169C110.544 11.6726 110.825 11.6258 111.012 11.5322C111.218 11.4385 111.293 11.2044 111.237 10.8298C111.18 10.3054 111.021 9.85587 110.759 9.48128C110.516 9.08795 110.094 8.89129 109.495 8.89129C108.821 8.89129 108.259 9.13478 107.809 9.62175C107.36 10.09 107.041 10.7736 106.854 11.6726ZM120.417 19.6796C119.649 19.6796 118.984 19.5485 118.422 19.2862C117.86 19.0053 117.392 18.6307 117.017 18.1625C116.661 17.6942 116.39 17.1417 116.203 16.5049C116.034 15.8681 115.95 15.1844 115.95 14.454C115.95 13.4613 116.109 12.5904 116.427 11.8412C116.746 11.0733 117.158 10.4271 117.664 9.90269C118.188 9.37826 118.787 8.98494 119.462 8.72273C120.155 8.46051 120.866 8.3294 121.597 8.3294C122.046 8.3294 122.449 8.36686 122.805 8.44178C123.161 8.5167 123.47 8.60098 123.732 8.69463C124.032 8.78828 124.303 8.90066 124.547 9.03177L126.26 8.10465L126.513 8.18893C126.513 9.64984 126.513 11.1014 126.513 12.5436C126.532 13.967 126.541 15.4092 126.541 16.8701C126.541 17.6193 126.86 17.9752 127.497 17.9377C127.646 17.9377 127.768 17.919 127.862 17.8815C127.955 17.8253 128.04 17.7785 128.115 17.741C128.19 17.6849 128.264 17.6193 128.339 17.5444L128.536 17.8253C128.386 18.1812 128.199 18.4902 127.974 18.7524C127.768 18.9959 127.515 19.2113 127.216 19.3986C126.916 19.5859 126.541 19.6796 126.092 19.6796C125.361 19.6796 124.837 19.4548 124.519 19.0053C124.2 18.5558 124.041 17.9752 124.041 17.2634V16.533C123.929 16.9263 123.779 17.3196 123.591 17.7129C123.404 18.0875 123.161 18.4247 122.861 18.7244C122.58 19.0053 122.234 19.2394 121.821 19.4267C121.428 19.5953 120.96 19.6796 120.417 19.6796ZM124.041 13.3302C124.041 12.8245 124.003 12.3375 123.929 11.8693C123.872 11.4011 123.751 10.989 123.563 10.6331C123.376 10.2586 123.123 9.95888 122.805 9.73413C122.486 9.50937 122.065 9.39699 121.541 9.39699C121.222 9.39699 120.885 9.47191 120.529 9.62175C120.173 9.77159 119.846 10.0151 119.546 10.3522C119.246 10.6893 119.003 11.1388 118.815 11.7007C118.628 12.2626 118.534 12.9463 118.534 13.7516C118.534 14.351 118.591 14.9222 118.703 15.4654C118.834 15.9898 119.012 16.4487 119.237 16.842C119.48 17.2353 119.771 17.5537 120.108 17.7972C120.464 18.022 120.866 18.1344 121.316 18.1344C121.728 18.1344 122.102 18.0126 122.44 17.7691C122.777 17.5257 123.058 17.2072 123.282 16.8139C123.526 16.4019 123.713 15.9243 123.844 15.3811C123.975 14.838 124.041 14.2573 124.041 13.6393V13.3302ZM129.633 19.4267V18.9772L130.701 18.7244C131.075 18.612 131.309 18.4715 131.403 18.3029C131.515 18.1156 131.572 17.7785 131.572 17.2915V11.8974C131.572 11.5228 131.497 11.2512 131.347 11.0827C131.197 10.8954 130.841 10.7549 130.279 10.6612L129.689 10.5489L129.717 10.0713C130.448 9.86523 131.169 9.5562 131.881 9.14414C132.592 8.73209 133.164 8.1702 133.594 7.45848H134.1L134.212 10.7736C134.362 10.4365 134.531 10.1368 134.718 9.8746C134.905 9.59366 135.158 9.28462 135.477 8.94748C135.795 8.61035 136.095 8.38559 136.376 8.27322C136.675 8.16084 136.947 8.10465 137.19 8.10465C137.659 8.10465 138.043 8.24512 138.342 8.52607C138.661 8.78828 138.82 9.19097 138.82 9.73413C138.82 10.2398 138.698 10.6425 138.455 10.9422C138.23 11.2231 137.902 11.3636 137.471 11.3636C137.247 11.3636 137.05 11.3168 136.881 11.2231C136.713 11.1108 136.554 10.989 136.404 10.8579C136.273 10.7268 136.142 10.6144 136.01 10.5208C135.879 10.4084 135.758 10.3522 135.645 10.3522C135.477 10.3522 135.317 10.4271 135.168 10.577C135.018 10.7081 134.877 10.8766 134.746 11.0827C134.615 11.2887 134.503 11.5228 134.409 11.785C134.334 12.0285 134.287 12.2626 134.269 12.4874C134.25 12.6747 134.231 12.8432 134.212 12.9931C134.194 13.1429 134.194 13.2834 134.212 13.4145V17.3477C134.212 17.816 134.297 18.125 134.465 18.2748C134.634 18.4059 134.971 18.5371 135.477 18.6682L136.91 18.9491V19.3986C136.46 19.3612 135.954 19.3424 135.392 19.3424C134.831 19.3237 134.259 19.3143 133.679 19.3143H133.145C132.527 19.3143 131.918 19.3237 131.319 19.3424C130.719 19.3612 130.157 19.3893 129.633 19.4267Z" fill="black"/>
</svg>
